<svg width="42" height="32" viewBox="0 0 42 32" fill="none" xmlns="http://www.w3.org/2000/svg">
<path d="M39.75 0.570312H2.25C1.8356 0.570312 1.43817 0.734933 1.14515 1.02796C0.85212 1.32098 0.6875 1.71841 0.6875 2.13281V28.6953C0.6875 29.5241 1.01674 30.319 1.60279 30.905C2.18884 31.4911 2.9837 31.8203 3.8125 31.8203H38.1875C39.0163 31.8203 39.8112 31.4911 40.3972 30.905C40.9833 30.319 41.3125 29.5241 41.3125 28.6953V2.13281C41.3125 1.71841 41.1479 1.32098 40.8549 1.02796C40.5618 0.734933 40.1644 0.570312 39.75 0.570312ZM21 17.2012L6.26758 3.69531H35.7324L21 17.2012ZM15.2793 16.1953L3.8125 26.7051V5.68555L15.2793 16.1953ZM17.5918 18.3145L19.9355 20.4727C20.2238 20.7373 20.6009 20.8841 20.9922 20.8841C21.3835 20.8841 21.7606 20.7373 22.0488 20.4727L24.3926 18.3145L35.7207 28.6953H6.26758L17.5918 18.3145ZM26.7207 16.1953L38.1875 5.68359V26.707L26.7207 16.1953Z" fill="#322e2e"/>
</svg>
