<?xml version="1.0" encoding="utf-8"?>
<!-- Generator: Adobe Illustrator 22.0.1, SVG Export Plug-In . SVG Version: 6.00 Build 0)  -->
<svg version="1.1" id="Layer_1" xmlns="http://www.w3.org/2000/svg" xmlns:xlink="http://www.w3.org/1999/xlink" x="0px" y="0px"
	 viewBox="0 0 1500 1000" style="enable-background:new 0 0 1500 1000;" xml:space="preserve">
<style type="text/css">
	.st0{fill:#00308F;}
	.st1{fill:#FFFFFF;}
	.st2{fill:#84CCD8;}
</style>
<path class="st0" d="M0,0.3c500,0,999.9,0,1500,0c0,333.2,0,666.4,0,999.8c-499.9,0-1000,0-1500,0C0,666.8,0,333.6,0,0.3z"/>
<path class="st1" d="M856.8,477.1c0-10.8-0.2-21.6,0-32.4c0.3-12.8,7.6-20.3,19.3-20.3c11.4,0,19.2,8.1,19.3,20.5
	c0.2,20.2-0.3,40.5,0.3,60.7c0.2,6.3,1.9,13,4.7,18.6c4,7.8,15.1,11.6,23.5,9.8c11.6-2.5,18.5-8.9,19.8-19.5c1-7.6,1.1-15.3,1.2-23
	c0.2-15.8,0-31.6,0-47.4c0-11.5,7.7-19.5,18.7-19.6c11.2-0.1,19.6,8,19.7,19.5c0.1,21.4,0.3,42.8-0.1,64.1
	c-0.5,30.7-20.4,55.3-50.3,60.8c-39.9,7.3-74.7-18.7-75.9-59.5c-0.3-10.7,0-21.5,0-32.3C856.9,477.2,856.9,477.1,856.8,477.1z"/>
<path class="st1" d="M1055,472.5c0,25.6,0.2,51.2-0.1,76.9c-0.2,13.5-8.7,23.8-23.9,20.7c-7.9-1.6-14.7-8.8-14.6-20.5
	c0.1-23.9,0-47.8,0-71.7c0-27.9,0.1-55.9,0-83.8c-0.1-14,9.7-22.8,23.3-20.4c6.6,1.2,11.8,5.3,13.2,12.1c1,5.1,2,10.4,2,15.6
	C1055.2,425.2,1055,448.9,1055,472.5z"/>
<path class="st1" d="M1097.3,464.3c-15.4-0.9-22.5-6.6-23-17.3c-0.6-11.9,5.6-17.3,23.1-19.7c0-5-0.2-10.2,0-15.4
	c0.4-11.9,8.5-20,19.5-19.8c10.3,0.2,18.7,8.9,19,20c0.2,5,0,10,0,15.8c9.2,0,18-0.1,26.8,0c7.9,0.1,14.3,3.1,17.6,10.6
	c5.4,12.2-3,25.1-16.5,25.5c-8.9,0.2-17.7,0.2-26.6,0.3c-0.2,0-0.3,0.2-1.7,1.1c0.6,15.6,0.2,32.2,2.1,48.4
	c1.5,13,12.9,21.5,26.1,21.4c10.2-0.1,19.2,9.1,18.3,19.4c-0.9,10.9-10.5,17.3-21.7,16.4c-11.7-1-22.6-3.8-32.6-10.1
	c-16.1-10.1-26.3-24.6-28.7-43.1c-2-15.3-1.3-31.1-1.8-46.6C1097.2,468.9,1097.3,466.6,1097.3,464.3z"/>
<path class="st1" d="M785.4,438.7c8.5-17.2,26.9-15.8,33.3-6.7c2.7,3.8,4.9,9,4.9,13.6c0.4,35,0.3,70.1,0.2,105.1
	c0,10.1-5.9,17.7-15,19.9c-8.8,2.2-17.2-1.8-22.1-10.4c-0.4-0.6-0.8-1.3-0.6-1c-9,3.5-17.3,8.1-26.2,10.1
	c-36.8,8.4-70.2-13.5-79.5-49.3c-7.2-27.9-2.1-53.6,18.1-74.8c21.8-22.9,55.4-26.3,82.2-9.4C782.1,436.8,783.5,437.7,785.4,438.7z
	 M751.1,461.6c-18.4-0.5-34,14.9-34.9,33.6c-1.1,23,13.2,39.8,33.6,40.1c20.5,0.3,33.8-14.2,35.3-35.1
	C786.7,479.1,771,462.1,751.1,461.6z"/>
<path class="st2" d="M565.6,486.5c7.4-9,14.8-18.1,22.4-26.9c18.8-21.9,37.7-43.6,56.6-65.5c6.4-7.4,12.3-15.2,19-22.3
	c7.2-7.6,18.7-7.5,26.3-0.6c7.5,6.8,8.5,18.6,1.9,26.5c-24.3,29-48.9,57.8-73.1,86.9c-14,16.8-27.7,33.9-41.6,50.9
	c-5.7,6.9-11.1,14.2-17.5,20.5c-11.1,11.1-24.7,11-33.6,0c-2.1-2.6-3.6-6.5-3.6-9.9c-0.3-33.7-0.2-67.4-0.1-101.1
	c0-9.6,7.4-18.6,16.5-20.3c9.4-1.8,21.2,4.7,24.4,13.5c0.7,2.1,0.5,4.6,0.5,6.9c0,13.6,0,27.3,0,40.9
	C564.2,486.2,564.9,486.3,565.6,486.5z"/>
<path class="st0" d="M388.1,498.2c0.2-18.8,13.4-32.4,31.2-32.1c16.5,0.2,30.4,14.8,30.1,31.6c-0.3,16.5-15.3,31-32,30.9
	C401.6,528.5,387.9,514.3,388.1,498.2z"/>
<path class="st2" d="M452.4,560.5c-18.8,11.3-38.2,12.6-57.6,8c-14.9-3.6-26-14.3-35.8-26c-21.2-25.3-15.9-74.1,7.8-97.6
	c17.5-17.3,38.5-22.7,62-17.5c8.4,1.9,16.1,6.3,24.8,9.9c0.1-0.1,0.8-1.1,1.5-2.1c6.7-9.8,12.5-11.1,24.6-8.6c7.4,1.5,12,10,12,19.6
	c0,53,0.1,106,0.1,159c0,13.1-9.2,20.8-21.7,18.5c-11.5-2.1-17.2-9.1-17.4-22.1c-0.2-11.6,0-23.1-0.1-34.7
	C452.7,564.9,452.5,563,452.4,560.5z M387.7,498.2c-0.2,16.1,13.5,30.2,29.3,30.4c16.7,0.2,31.7-14.3,32-30.9
	c0.3-16.8-13.6-31.4-30.1-31.6C401.1,465.8,387.9,479.4,387.7,498.2z"/>
<path class="st0" d="M750.9,461.6c19.9,0.5,35.6,17.5,34.1,38.6c-1.5,21-14.9,35.4-35.3,35.1c-20.4-0.3-34.7-17.1-33.6-40.1
	C716.9,476.5,732.5,461.1,750.9,461.6z"/>
</svg>
