<svg width="42" height="42" viewBox="0 0 42 42" fill="none" xmlns="http://www.w3.org/2000/svg">
<path d="M38.1875 0.882812H3.8125C2.9837 0.882813 2.18884 1.21205 1.60279 1.7981C1.01674 2.38415 0.6875 3.17901 0.6875 4.00781V38.3828C0.6875 39.2116 1.01674 40.0065 1.60279 40.5925C2.18884 41.1786 2.9837 41.5078 3.8125 41.5078H38.1875C39.0163 41.5078 39.8112 41.1786 40.3972 40.5925C40.9833 40.0065 41.3125 39.2116 41.3125 38.3828V4.00781C41.3125 3.17901 40.9833 2.38415 40.3972 1.7981C39.8112 1.21205 39.0163 0.882813 38.1875 0.882812ZM38.1875 38.3828H3.8125V4.00781H38.1875V38.3828ZM14.75 18.0703V30.5703C14.75 30.9847 14.5854 31.3821 14.2924 31.6752C13.9993 31.9682 13.6019 32.1328 13.1875 32.1328C12.7731 32.1328 12.3757 31.9682 12.0826 31.6752C11.7896 31.3821 11.625 30.9847 11.625 30.5703V18.0703C11.625 17.6559 11.7896 17.2585 12.0826 16.9655C12.3757 16.6724 12.7731 16.5078 13.1875 16.5078C13.6019 16.5078 13.9993 16.6724 14.2924 16.9655C14.5854 17.2585 14.75 17.6559 14.75 18.0703ZM31.9375 23.5391V30.5703C31.9375 30.9847 31.7729 31.3821 31.4799 31.6752C31.1868 31.9682 30.7894 32.1328 30.375 32.1328C29.9606 32.1328 29.5632 31.9682 29.2701 31.6752C28.9771 31.3821 28.8125 30.9847 28.8125 30.5703V23.5391C28.8125 22.5031 28.4009 21.5095 27.6684 20.7769C26.9358 20.0444 25.9423 19.6328 24.9062 19.6328C23.8702 19.6328 22.8767 20.0444 22.1441 20.7769C21.4116 21.5095 21 22.5031 21 23.5391V30.5703C21 30.9847 20.8354 31.3821 20.5424 31.6752C20.2493 31.9682 19.8519 32.1328 19.4375 32.1328C19.0231 32.1328 18.6257 31.9682 18.3326 31.6752C18.0396 31.3821 17.875 30.9847 17.875 30.5703V18.0703C17.8769 17.6876 18.0193 17.3189 18.275 17.0341C18.5308 16.7494 18.8821 16.5684 19.2624 16.5256C19.6428 16.4827 20.0256 16.5809 20.3383 16.8016C20.651 17.0222 20.8719 17.35 20.959 17.7227C22.016 17.0056 23.2483 16.59 24.5237 16.5205C25.7991 16.4511 27.0693 16.7303 28.198 17.3282C29.3266 17.9262 30.2711 18.8203 30.9299 19.9145C31.5887 21.0088 31.9371 22.2618 31.9375 23.5391ZM15.5312 12.6016C15.5312 13.0651 15.3938 13.5183 15.1363 13.9037C14.8787 14.2891 14.5127 14.5895 14.0844 14.7669C13.6561 14.9443 13.1849 14.9907 12.7303 14.9003C12.2756 14.8098 11.858 14.5866 11.5302 14.2588C11.2024 13.9311 10.9792 13.5134 10.8888 13.0588C10.7984 12.6042 10.8448 12.1329 11.0222 11.7046C11.1995 11.2764 11.5 10.9103 11.8854 10.6528C12.2708 10.3953 12.724 10.2578 13.1875 10.2578C13.8091 10.2578 14.4052 10.5047 14.8448 10.9443C15.2843 11.3838 15.5312 11.98 15.5312 12.6016Z" fill="#322e2e"/>
</svg>
