<svg xmlns="http://www.w3.org/2000/svg" viewBox="0 0 380.58 321.52"><defs><style>.cls-1,.cls-13,.cls-2{fill:none;}.cls-1,.cls-13,.cls-3{stroke:#231f20;}.cls-1,.cls-13,.cls-2,.cls-3{stroke-miterlimit:10;}.cls-1,.cls-2{stroke-width:3px;}.cls-2{stroke:#bcbec0;}.cls-3,.cls-5{fill:#fff;}.cls-4{fill:#c0c2c4;}.cls-6{fill:#cbccce;}.cls-7{fill:#b6b8ba;}.cls-8{fill:#95979a;}.cls-9{fill:#c9cacc;}.cls-10{fill:#9fa1a4;}.cls-11{fill:#a7a9ac;}.cls-12{fill:#dcddde;}</style></defs><title>icon ver7</title><g id="Layer_20" data-name="Layer 20"><path class="cls-1" d="M259.34,297.08c6.57-12.44,12.54-22.7,17.36-30.59,2.5-4.1,5.17-8.35,10.34-11,7.2-3.63,14.82-1.82,17.86-1.12,14.51,3.34,61.21,12.93,125,26.48,1.92.41,5.86,2.73,5.6,4.38-.2,1.28-2.95,1.89-4.79,2.19" transform="translate(-59.71 -89.74)"/><path class="cls-1" d="M379,286.72,368.3,304a66,66,0,0,0-2.65,8.58,65.35,65.35,0,0,0-1.19,6.59s-2.13,14.8,3.47,36.7a5.6,5.6,0,0,0,1.25,2.51c4.18,4.64,16.19,0,17.93-.69,9.46-3.78,14.71-10.48,21.95-20a125.8,125.8,0,0,0,15.47-26.13c5.4-12.61,2.84-12.77,8-32.42a9,9,0,0,0-.1-5.78c-1.69-4.11-6.86-5.54-9-6.12a27.56,27.56,0,0,0-15.35.58C394.35,271.91,384,281.52,379,286.72Z" transform="translate(-59.71 -89.74)"/><path class="cls-1" d="M228,331.59c4.15-6.77,11.19-10.7,25.1-18.3,12.15-6.63,19.84-10.75,31.43-13.06a86.35,86.35,0,0,1,19.19-1.52c10.22.09,16.47.24,22.23,4.55a24.12,24.12,0,0,1,6.93,8.38A26.54,26.54,0,0,1,335.5,324c.07,12-3.39,22.23-5.13,27-3.92,10.75-7,19.2-14.42,28.73a74.69,74.69,0,0,1-29.47,23.51c-9.16,4-20.64,9-34.34,5.1-18.21-5.14-26-21.91-27.07-24.25-4.78-10.69-3.76-20.49-2.67-30.91C223.3,344.5,224,338.24,228,331.59Z" transform="translate(-59.71 -89.74)"/><path class="cls-1" d="M334.83,316.7a58.16,58.16,0,0,0,35.76-16.45" transform="translate(-59.71 -89.74)"/><path class="cls-1" d="M119.46,334.26a90.71,90.71,0,0,0-7.63-26.42c-1.67-3.61-3.61-6.65-2.66-7.61,1.69-1.69,10.58,4.92,20.17,11.67,0,0,24.57,17.27,73.66,43.12a20.41,20.41,0,0,0,3.49,1.48c5.69,1.83,11.24.93,15.54-.43" transform="translate(-59.71 -89.74)"/><path class="cls-1" d="M320.54,337.2c.82-2.24,1.56-4.85.69-5.44-.46-.31-1.27,0-1.27.2,0,.49,5.4-.5,7.65,2.3,1.09,1.34.54,2.45,1.33,5.25a16.43,16.43,0,0,0,3.19,5.95" transform="translate(-59.71 -89.74)"/><path class="cls-1" d="M349.84,322.83c1.88,4.88,2.82,5,3.12,5,.79-.14,1.23-2.37,1.19-4.09-.07-3.12-1.69-4.15-1-5.54s3.53-2.09,5.55-1.33c1,.38,2.55,1.37,2.5,2.51s-1.72,1.21-2.59,2.79c-1.43,2.65,1.11,6.41,1.24,6.6A8.86,8.86,0,0,0,364,332" transform="translate(-59.71 -89.74)"/><path class="cls-1" d="M319.38,331.21" transform="translate(-59.71 -89.74)"/><path class="cls-2" d="M315.62,332.64c-2.05,1.44-2.75,6-4.14,15.09-.25,1.63-.5,3.47.59,4.94,1.26,1.69,3.77,2.16,5.57,2,5.59-.65,9.27-8.45,10-14.25.32-2.44.69-5.39-1.14-7.41C324.06,330.27,318.74,330.44,315.62,332.64Z" transform="translate(-59.71 -89.74)"/><path class="cls-2" d="M344,320.53c-.21,2.55.74,4.48,1.83,6.64,2.44,4.8,5.25,6.32,6.37,6.83.79.36,1.17.4,1.47.24,1.82-.94-.64-8.57-.89-9.35a16.86,16.86,0,0,0-4.44-7.28c-1.13-1-1.84-1.34-2.44-1.19C344.35,316.8,344.05,320.11,344,320.53Z" transform="translate(-59.71 -89.74)"/></g><g id="Layer_10" data-name="Layer 10"><g id="Layer_8" data-name="Layer 8"><path class="cls-3" d="M243.08,322.32" transform="translate(-59.71 -89.74)"/></g><g id="Layer_11" data-name="Layer 11"><path class="cls-4" d="M409.46,248.88l.22,0a38.53,38.53,0,0,1-6.51,3.12l0,0-.74-1.36Z" transform="translate(-59.71 -89.74)"/><path class="cls-5" d="M402.41,250.57l.74,1.36-1.22-1.24Z" transform="translate(-59.71 -89.74)"/><path class="cls-6" d="M402.41,250.57l-.48.12L280.67,127.08c29.6,17.35,67.74,45.38,100.06,89.54A318.44,318.44,0,0,1,402.41,250.57Z" transform="translate(-59.71 -89.74)"/><path class="cls-6" d="M280.67,127.08,401.93,250.69,249.35,287.21l15.83-157.7.09-.26C269.36,130,275.39,130.3,280.67,127.08Z" transform="translate(-59.71 -89.74)"/><path class="cls-6" d="M249.35,287.21l152.58-36.52,1.22,1.24,0,0c-1.48.59-3.19,1.22-5.22,1.94-15.84,5.59-28.3,8.19-45.84,12.29-11.05,2.59-16.57,3.88-18.51,4.48-17.86,5.5-26.48,11.88-38,17.42-18.32,8.82-34.45,11-45.45,12.43-.69.09-1.39.18-2.13.25Z" transform="translate(-59.71 -89.74)"/><path class="cls-4" d="M377.54,160.94l-93.36-37.35a287.37,287.37,0,0,1,93.36,37.35Z" transform="translate(-59.71 -89.74)"/><path class="cls-7" d="M305.21,115.22l-25.52.64a58.22,58.22,0,0,1,25.52-.64Z" transform="translate(-59.71 -89.74)"/><path class="cls-8" d="M261,101.45a341.77,341.77,0,0,1,44.26,13.77,58.22,58.22,0,0,0-25.52.64,30.23,30.23,0,0,0-10.45-5.52,24.32,24.32,0,0,0-6.35-.91,23,23,0,0,0-1.17-6A20.9,20.9,0,0,0,261,101.45Z" transform="translate(-59.71 -89.74)"/><path class="cls-7" d="M284.15,123.58c.54-2.32-1.4-5.19-4.46-7.72l25.52-.64h0a224.54,224.54,0,0,1,38.54,19.21c11.18,7.11,20.72,14.94,33.77,26.51a287.37,287.37,0,0,0-93.36-37.35Z" transform="translate(-59.71 -89.74)"/><path class="cls-4" d="M409.68,248.85l-.22,0-7,1.69a318.44,318.44,0,0,0-21.68-33.95c-32.32-44.16-70.46-72.19-100.06-89.54,1.7-1,3.11-1.92,3.48-3.5h0l93.36,37.35h0c4.64,4.12,9.73,8.71,15.5,13.92a132.75,132.75,0,0,1,24.73,31c4.41,7.67,6.16,12.6,6,18.29-.29,12.91-10,21.44-11.32,22.58A23.58,23.58,0,0,1,409.68,248.85Z" transform="translate(-59.71 -89.74)"/><path class="cls-9" d="M250.6,113.16a20.18,20.18,0,0,1,3-2.2,27.94,27.94,0,0,1,9.16-1.54l.11.44c0-.15,0-.28,0-.43a24.32,24.32,0,0,1,6.35.91,30.23,30.23,0,0,1,10.45,5.52c3.06,2.53,5,5.4,4.46,7.72-.37,1.58-1.78,2.46-3.48,3.5-5.28,3.22-11.31,2.9-15.4,2.17-1.57-.3-2.86-.64-3.7-.88-3.06-.86-9.56-2.68-12.57-5.93a5.37,5.37,0,0,1-1.57-3.47,5.58,5.58,0,0,1,.76-2.91A11.75,11.75,0,0,1,250.6,113.16Z" transform="translate(-59.71 -89.74)"/><path class="cls-7" d="M261.57,128.37c.84.24,2.13.58,3.7.88l-.09.26A924.8,924.8,0,0,0,249,263.75q-.57,12-.81,23.75l-61.76,14.78h-4.84c-16-.05-34-.1-50-2.82-13.11-2.23-22-3.75-31.75-9.53-11.36-6.75-18.68-16.3-23.7-25.43L249,122.44C252,125.69,258.51,127.51,261.57,128.37Z" transform="translate(-59.71 -89.74)"/><path class="cls-5" d="M262.89,109.43c0,.15,0,.28,0,.43l-.11-.44Z" transform="translate(-59.71 -89.74)"/><path class="cls-5" d="M262.89,109.43h-.09l-1.85-8a20.9,20.9,0,0,1,.77,2A23,23,0,0,1,262.89,109.43Z" transform="translate(-59.71 -89.74)"/><path class="cls-6" d="M265.18,129.51l-15.83,157.7-1.18.29q.26-11.73.81-23.75A924.8,924.8,0,0,1,265.18,129.51Z" transform="translate(-59.71 -89.74)"/><path class="cls-10" d="M249.62,112.51l1,.65a11.75,11.75,0,0,0-2.41,2.9,636.58,636.58,0,0,0-113.53,12.06c-19.13,3.8-37,8.27-53.65,13.11a128,128,0,0,1,89.82-50.38h0Z" transform="translate(-59.71 -89.74)"/><path class="cls-10" d="M249.62,112.51,170.84,90.85h0c17.36-.4,41.66,1.89,66.53,14.56A128.86,128.86,0,0,1,249.62,112.51Z" transform="translate(-59.71 -89.74)"/><path class="cls-7" d="M249,122.44,76.15,264.51h0a26.16,26.16,0,0,1-.67-9.1A28.22,28.22,0,0,1,81,241.74c15.22-21.31,30.63-32.25,30.63-32.25C163.51,172.7,142.92,185,161,173.9,183.71,159.94,213.31,142.32,249,122.44Z" transform="translate(-59.71 -89.74)"/><path class="cls-6" d="M249.35,287.21,248,300.78q0-6.58.18-13.28Z" transform="translate(-59.71 -89.74)"/><path class="cls-11" d="M247.43,119a5.37,5.37,0,0,0,1.57,3.47c-35.69,19.88-65.29,37.5-88,51.46-18.08,11.1,2.51-1.2-49.35,35.59,0,0-15.41,10.94-30.63,32.25a28.22,28.22,0,0,0-5.54,13.66,26.16,26.16,0,0,0,.67,9.1,137.14,137.14,0,0,1-8-17.91C64.89,237.94,54.67,210,64.11,176A106.68,106.68,0,0,1,81,141.23l167.18-25.17A5.58,5.58,0,0,0,247.43,119Z" transform="translate(-59.71 -89.74)"/><path class="cls-7" d="M186.41,302.28l61.76-14.78q-.13,6.69-.18,13.28C236.31,302.09,219,302.16,186.41,302.28Z" transform="translate(-59.71 -89.74)"/><path class="cls-8" d="M193.91,90.66a434.73,434.73,0,0,1,67,10.78h0l1.85,8a27.94,27.94,0,0,0-9.16,1.54,20.18,20.18,0,0,0-3,2.2l-1-.65a128.86,128.86,0,0,0-12.22-7.1c-24.87-12.67-49.17-15-66.53-14.56A130.79,130.79,0,0,1,193.91,90.66Z" transform="translate(-59.71 -89.74)"/><path class="cls-12" d="M425.34,267.56c-5.62-3.05-18.78,3.55-20.63,4.49-5.37,2.74-8.73,5.14-21.71,14.76-6.46,4.78-9.68,7.17-12.9,9.6C352,310,328.58,316.15,318.84,318.72a185.58,185.58,0,0,1-51.8,6.17c-36.21-1.13-64.36-13.6-80.63-22.61,32.62-.12,49.9-.19,61.58-1.5.74-.07,1.44-.16,2.13-.25,11-1.46,27.13-3.61,45.45-12.43,11.55-5.54,20.17-11.92,38-17.42,1.94-.6,7.46-1.89,18.51-4.48,17.54-4.1,30-6.7,45.84-12.29,2-.72,3.74-1.35,5.22-1.94a38.53,38.53,0,0,0,6.51-3.12,16.33,16.33,0,0,1,7.14.5c4.4,1.37,4.67,3.74,9.56,6.22,5.44,2.75,7.57,1,10.48,4,1.87,1.89,3.81,5.46,2.49,8.4a5.73,5.73,0,0,1-4.09,3.2c-.87.15-1.74.05-5-1.33A49.09,49.09,0,0,1,425.34,267.56Z" transform="translate(-59.71 -89.74)"/><path class="cls-11" d="M81,141.23c16.62-4.84,34.52-9.31,53.65-13.11a636.58,636.58,0,0,1,113.53-12.06Z" transform="translate(-59.71 -89.74)"/><path class="cls-13" d="M186.41,302.28c16.27,9,44.42,21.48,80.63,22.61a185.58,185.58,0,0,0,51.8-6.17c9.74-2.57,33.13-8.73,51.26-22.31,3.22-2.43,6.44-4.82,12.9-9.6,13-9.62,16.34-12,21.71-14.76,1.85-.94,15-7.54,20.63-4.49a49.09,49.09,0,0,0,4.89,2.24c3.29,1.38,4.16,1.48,5,1.33a5.73,5.73,0,0,0,4.09-3.2c1.32-2.94-.62-6.51-2.49-8.4-2.91-2.92-5-1.21-10.48-4-4.89-2.48-5.16-4.85-9.56-6.22a16.33,16.33,0,0,0-7.14-.5" transform="translate(-59.71 -89.74)"/><path class="cls-13" d="M76.15,264.5a137.14,137.14,0,0,1-8-17.91C64.89,237.94,54.67,210,64.11,176A106.68,106.68,0,0,1,81,141.23a128,128,0,0,1,89.82-50.38" transform="translate(-59.71 -89.74)"/><path class="cls-13" d="M377.55,161c4.64,4.12,9.73,8.71,15.5,13.92a132.75,132.75,0,0,1,24.73,31c4.41,7.67,6.16,12.6,6,18.29-.29,12.91-10,21.44-11.32,22.58a23.58,23.58,0,0,1-2.82,2.07,38.53,38.53,0,0,1-6.51,3.12c-1.48.59-3.19,1.22-5.22,1.94-15.84,5.59-28.3,8.19-45.84,12.29-11.05,2.59-16.57,3.88-18.51,4.48-17.86,5.5-26.48,11.88-38,17.42-18.32,8.82-34.45,11-45.45,12.43-.69.09-1.39.18-2.13.25-11.68,1.31-29,1.38-61.58,1.5h-4.84c-16-.05-34-.1-50-2.82-13.11-2.23-22-3.75-31.75-9.53-11.36-6.75-18.68-16.3-23.7-25.43" transform="translate(-59.71 -89.74)"/><path class="cls-13" d="M305.23,115.22a224.54,224.54,0,0,1,38.54,19.21c11.18,7.11,20.72,14.94,33.77,26.51" transform="translate(-59.71 -89.74)"/><path class="cls-13" d="M261,101.45a341.77,341.77,0,0,1,44.26,13.77" transform="translate(-59.71 -89.74)"/><path class="cls-13" d="M170.87,90.85a130.79,130.79,0,0,1,23-.19,434.73,434.73,0,0,1,67,10.78" transform="translate(-59.71 -89.74)"/><path class="cls-13" d="M262.89,109.43a24.32,24.32,0,0,1,6.35.91,30.23,30.23,0,0,1,10.45,5.52c3.06,2.53,5,5.4,4.46,7.72-.37,1.58-1.78,2.46-3.48,3.5-5.28,3.22-11.31,2.9-15.4,2.17-1.57-.3-2.86-.64-3.7-.88-3.06-.86-9.56-2.68-12.57-5.93a5.37,5.37,0,0,1-1.57-3.47,5.58,5.58,0,0,1,.76-2.91,11.75,11.75,0,0,1,2.41-2.9,20.18,20.18,0,0,1,3-2.2,27.94,27.94,0,0,1,9.16-1.54" transform="translate(-59.71 -89.74)"/><path class="cls-13" d="M280.67,127.08c29.6,17.35,67.74,45.38,100.06,89.54a318.44,318.44,0,0,1,21.68,33.95l.74,1.36" transform="translate(-59.71 -89.74)"/><path class="cls-13" d="M265.18,129.51A924.8,924.8,0,0,0,249,263.75q-.57,12-.81,23.75-.13,6.69-.18,13.28" transform="translate(-59.71 -89.74)"/><line class="cls-13" x1="188.29" y1="211.05" x2="188.29" y2="211.04"/><path class="cls-13" d="M249,122.44c-35.69,19.88-65.29,37.5-88,51.46-18.08,11.1,2.51-1.2-49.35,35.59,0,0-15.41,10.94-30.63,32.25a28.22,28.22,0,0,0-5.54,13.66,26.16,26.16,0,0,0,.67,9.1h0" transform="translate(-59.71 -89.74)"/><path class="cls-13" d="M248.19,116.06a636.58,636.58,0,0,0-113.53,12.06c-19.13,3.8-37,8.27-53.65,13.11" transform="translate(-59.71 -89.74)"/><path class="cls-13" d="M170.84,90.85h0c17.36-.4,41.66,1.89,66.53,14.56a128.86,128.86,0,0,1,12.22,7.1l1,.65h0" transform="translate(-59.71 -89.74)"/><line class="cls-13" x1="111.13" y1="1.11" x2="111.12" y2="1.11"/><path class="cls-13" d="M262.91,109.86c0-.15,0-.28,0-.43a23,23,0,0,0-1.17-6,20.9,20.9,0,0,0-.77-2" transform="translate(-59.71 -89.74)"/><line class="cls-13" x1="201.24" y1="11.7" x2="201.24" y2="11.71"/><path class="cls-13" d="M279.69,115.86a58.22,58.22,0,0,1,25.52-.64" transform="translate(-59.71 -89.74)"/><line class="cls-13" x1="245.52" y1="25.48" x2="245.5" y2="25.48"/><path class="cls-13" d="M284.18,123.59a287.37,287.37,0,0,1,93.36,37.35" transform="translate(-59.71 -89.74)"/><line class="cls-13" x1="224.47" y1="33.85" x2="224.44" y2="33.84"/><line class="cls-13" x1="317.84" y1="71.21" x2="317.83" y2="71.2"/></g></g></svg>