<svg width="50" height="51" viewBox="0 0 50 51" fill="none" xmlns="http://www.w3.org/2000/svg">
<path d="M25 15.8203C23.1458 15.8203 21.3332 16.3701 19.7915 17.4003C18.2498 18.4304 17.0482 19.8946 16.3386 21.6077C15.6291 23.3207 15.4434 25.2057 15.8051 27.0243C16.1669 28.8429 17.0598 30.5133 18.3709 31.8244C19.682 33.1356 21.3525 34.0284 23.171 34.3902C24.9896 34.7519 26.8746 34.5663 28.5877 33.8567C30.3007 33.1471 31.7649 31.9455 32.795 30.4038C33.8252 28.8621 34.375 27.0495 34.375 25.1953C34.3724 22.7097 33.3839 20.3266 31.6263 18.569C29.8687 16.8114 27.4856 15.8229 25 15.8203ZM25 31.4453C23.7639 31.4453 22.5555 31.0788 21.5277 30.392C20.4999 29.7052 19.6988 28.7291 19.2258 27.5871C18.7527 26.445 18.6289 25.1884 18.8701 23.976C19.1112 22.7636 19.7065 21.65 20.5806 20.7759C21.4547 19.9018 22.5683 19.3066 23.7807 19.0654C24.9931 18.8242 26.2497 18.948 27.3918 19.4211C28.5338 19.8941 29.5099 20.6952 30.1967 21.723C30.8834 22.7508 31.25 23.9592 31.25 25.1953C31.25 26.8529 30.5915 28.4426 29.4194 29.6147C28.2473 30.7868 26.6576 31.4453 25 31.4453ZM34.375 4.88281H15.625C12.7251 4.88591 9.94495 6.03925 7.89445 8.08976C5.84394 10.1403 4.6906 12.9205 4.6875 15.8203V34.5703C4.6906 37.4702 5.84394 40.2504 7.89445 42.3009C9.94495 44.3514 12.7251 45.5047 15.625 45.5078H34.375C37.2749 45.5047 40.055 44.3514 42.1056 42.3009C44.1561 40.2504 45.3094 37.4702 45.3125 34.5703V15.8203C45.3094 12.9205 44.1561 10.1403 42.1056 8.08976C40.055 6.03925 37.2749 4.88591 34.375 4.88281ZM42.1875 34.5703C42.1875 36.6423 41.3644 38.6295 39.8993 40.0946C38.4341 41.5597 36.447 42.3828 34.375 42.3828H15.625C13.553 42.3828 11.5659 41.5597 10.1007 40.0946C8.6356 38.6295 7.8125 36.6423 7.8125 34.5703V15.8203C7.8125 13.7483 8.6356 11.7612 10.1007 10.296C11.5659 8.83091 13.553 8.00781 15.625 8.00781H34.375C36.447 8.00781 38.4341 8.83091 39.8993 10.296C41.3644 11.7612 42.1875 13.7483 42.1875 15.8203V34.5703ZM37.5 15.0391C37.5 15.5026 37.3625 15.9558 37.105 16.3412C36.8475 16.7266 36.4814 17.027 36.0532 17.2044C35.6249 17.3818 35.1537 17.4282 34.699 17.3378C34.2444 17.2473 33.8267 17.0241 33.499 16.6963C33.1712 16.3686 32.948 15.9509 32.8575 15.4963C32.7671 15.0417 32.8135 14.5704 32.9909 14.1421C33.1683 13.7139 33.4687 13.3478 33.8541 13.0903C34.2396 12.8328 34.6927 12.6953 35.1562 12.6953C35.7779 12.6953 36.374 12.9422 36.8135 13.3818C37.2531 13.8213 37.5 14.4175 37.5 15.0391Z" fill="#322e2e"/>
</svg>
