<?xml version="1.0" encoding="utf-8"?>
<!-- Generator: Adobe Illustrator 22.0.1, SVG Export Plug-In . SVG Version: 6.00 Build 0)  -->
<svg version="1.1" id="Layer_1" xmlns="http://www.w3.org/2000/svg" xmlns:xlink="http://www.w3.org/1999/xlink" x="0px" y="0px"
	 viewBox="0 0 1500 1000" style="enable-background:new 0 0 1500 1000;" xml:space="preserve">
<style type="text/css">
	.st0{fill:#009999;}
	.st1{fill:#FFFFFF;}
</style>
<rect x="0" y="0" class="st0" width="1500" height="1000"/>
<g id="Ebene_x0020_1">
	<path class="st1" d="M1219,410.3V439c-14.9-5.6-28.1-8.5-39.7-8.5c-6.9,0-12.3,1.3-16.5,3.7c-4.1,2.5-6.2,5.5-6.2,9.1
		c0,4.8,4.6,9.1,14,12.9l27,13.2c21.8,10.4,32.7,24.2,32.7,41.6c0,14.4-5.7,26-17.4,34.5c-11.5,8.6-27,12.9-46.3,12.9
		c-8.9,0-16.9-0.4-24-1.2c-7.1-0.8-15.3-2.3-24.3-4.6v-30.1c16.6,5.6,31.7,8.5,45.3,8.5c16.2,0,24.3-4.7,24.3-14.2
		c0-4.7-3.3-8.5-10-11.5l-30-12.8c-11.1-5-19.3-11.1-24.7-18.3c-5.3-7.3-8-15.6-8-25.1c0-13.3,5.6-24,16.7-32.2
		c11.2-8.1,26-12.1,44.4-12.1c6,0,12.9,0.5,20.5,1.5C1204.5,407.4,1211.9,408.7,1219,410.3L1219,410.3z"/>
	<path class="st1" d="M369,410.3V439c-14.9-5.6-28.1-8.5-39.7-8.5c-6.9,0-12.3,1.3-16.5,3.7c-4.1,2.5-6.2,5.5-6.2,9.1
		c0,4.8,4.7,9.1,14.1,12.9l27,13.2c21.8,10.4,32.6,24.2,32.6,41.6c0,14.4-5.8,26-17.3,34.5c-11.6,8.6-27,12.9-46.4,12.9
		c-8.9,0-16.9-0.4-24-1.2c-7.1-0.8-15.2-2.3-24.3-4.6v-30.1c16.7,5.6,31.8,8.5,45.3,8.5c16.2,0,24.3-4.7,24.3-14.2
		c0-4.7-3.3-8.5-9.9-11.5l-30-12.8c-11.2-5-19.4-11.1-24.7-18.3c-5.4-7.3-8-15.6-8-25.1c0-13.3,5.6-24,16.7-32.2
		c11.1-8.1,25.9-12.1,44.3-12.1c6,0,12.9,0.5,20.6,1.5C354.5,407.4,361.9,408.7,369,410.3z"/>
	<polygon class="st1" points="400,407.6 444,407.6 444,555.7 400,555.7 	"/>
	<polygon class="st1" points="585.8,407.6 585.8,435 520.4,435 520.4,467.8 577.1,467.8 577.1,492.5 520.4,492.5 520.4,527 
		587.1,527 587.1,555.7 478,555.7 478,407.6 	"/>
	<polygon class="st1" points="791.2,407.6 791.2,555.7 750.2,555.7 750.2,458 707.5,557.1 682.2,557.1 641.2,458 641.2,555.7 
		611.4,555.7 611.4,407.6 665.2,407.6 701.8,498.3 740.2,407.6 	"/>
	<polygon class="st1" points="933,407.6 933,435 867.9,435 867.9,467.8 924.7,467.8 924.7,492.5 867.9,492.5 867.9,527 934.3,527 
		934.3,555.7 825.2,555.7 825.2,407.6 	"/>
	<polygon class="st1" points="1087.4,407.6 1087.4,555.7 1040.7,555.7 988.3,460.7 988.3,555.7 958.6,555.7 958.6,407.6 
		1006.7,407.6 1057.7,501 1057.7,407.6 	"/>
</g>
</svg>
